<?xml version="1.0" encoding="UTF-8" standalone="no"?>
<!-- Created with Inkscape (http://www.inkscape.org/) -->

<svg
   xmlns:dc="http://purl.org/dc/elements/1.1/"
   xmlns:cc="http://creativecommons.org/ns#"
   xmlns:rdf="http://www.w3.org/1999/02/22-rdf-syntax-ns#"
   xmlns:svg="http://www.w3.org/2000/svg"
   xmlns="http://www.w3.org/2000/svg"
   xmlns:sodipodi="http://sodipodi.sourceforge.net/DTD/sodipodi-0.dtd"
   xmlns:inkscape="http://www.inkscape.org/namespaces/inkscape"
   id="svg2"
   version="1.1"
   inkscape:version="0.48.4 r9939"
   width="400"
   height="180"
   xml:space="preserve"
   sodipodi:docname="nserc.svg"><metadata
     id="metadata8"><rdf:RDF><cc:Work
         rdf:about=""><dc:format>image/svg+xml</dc:format><dc:type
           rdf:resource="http://purl.org/dc/dcmitype/StillImage" /><dc:title></dc:title></cc:Work></rdf:RDF></metadata><defs
     id="defs6" /><sodipodi:namedview
     pagecolor="#ffffff"
     bordercolor="#666666"
     borderopacity="1"
     objecttolerance="10"
     gridtolerance="10"
     guidetolerance="10"
     inkscape:pageopacity="0"
     inkscape:pageshadow="2"
     inkscape:window-width="2549"
     inkscape:window-height="1284"
     id="namedview4"
     showgrid="false"
     inkscape:zoom="2"
     inkscape:cx="213.24273"
     inkscape:cy="133.63473"
     inkscape:window-x="65"
     inkscape:window-y="24"
     inkscape:window-maximized="0"
     inkscape:current-layer="g10"
     fit-margin-top="20"
     fit-margin-left="20"
     fit-margin-right="20"
     fit-margin-bottom="20" /><g
     id="g10"
     inkscape:groupmode="layer"
     inkscape:label="ink_ext_XXXXXX"
     transform="matrix(1.25,0,0,-1.25,15.100147,59.903006)"><g
       id="g12"
       transform="matrix(0.24867569,0,0,0.24867569,-5.5213027,-85.761351)"><path
         d="M 493.066,247.68 C 493.066,112.09 383.129,2.12891 247.527,2.12891 111.926,2.12891 1.98828,112.09 1.98828,247.68 c 0,135.605 109.93772,245.543 245.53872,245.543 135.602,0 245.539,-109.938 245.539,-245.543"
         style="fill:#ffffff;fill-opacity:1;fill-rule:nonzero;stroke:none"
         id="path14"
         inkscape:connector-curvature="0" /><path
         d="m 370.398,91.5742 -52.168,0 -14.441,102.0468 c -0.059,0.492 -0.476,0.863 -0.969,0.863 -0.5,0 -0.91,-0.371 -0.968,-0.863 l -14.465,-102.0468 -20.008,0 -18.371,168.4568 c -0.047,0.489 -0.469,0.848 -0.957,0.848 -0.5,0 -0.91,-0.359 -0.973,-0.848 l -18.367,-168.4568 -19.883,0 -14.457,102.1098 c -0.058,0.496 -0.48,0.867 -0.973,0.867 -0.5,0 -0.91,-0.371 -0.964,-0.867 l -14.465,-102.1098 -52.262,0 20.84,40.7498 -96.0587,77.219 18.8047,16.133 -16.375,65.066 56.852,-7.898 16.359,30.765 66.012,-50.336 -25.77,114.934 41.426,-18.074 40.254,70.144 40.262,-70.144 41.429,18.074 -25.781,-114.934 66.019,50.336 16.36,-30.765 56.848,7.898 -16.368,-65.066 18.801,-16.133 -96.058,-77.219 20.835,-40.7498 z M 248.051,496.098 C 111.059,496.098 0,385.039 0,248.047 0,111.055 111.059,0 248.051,0 c 137,0 248.058,111.055 248.058,248.047 0,136.992 -111.058,248.051 -248.058,248.051"
         style="fill:#ee2a27;fill-opacity:1;fill-rule:nonzero;stroke:none"
         id="path16"
         inkscape:connector-curvature="0" /><path
         d="m 596.129,376.719 54.476,0 9.532,-69.422 0.312,0 14.785,69.422 36.836,0 -24.375,-114.696 -54.492,0 -9.437,69.903 -0.305,0 -14.883,-69.903 -36.844,0 24.395,114.696"
         style="fill:#231f20;fill-opacity:1;fill-rule:nonzero;stroke:none"
         id="path18"
         inkscape:connector-curvature="0" /><path
         d="m 798.32,344.152 c 1.348,7.149 -2.109,9.532 -7.988,9.532 -7.324,0 -11.172,-3.176 -11.914,-6.68 -0.879,-4.121 1.465,-5.883 5.918,-7.305 8.203,-2.531 23.574,-5.703 34.102,-10.644 13.183,-6.035 17.343,-16.352 14.414,-30.176 -5.997,-28.106 -31.368,-39.863 -63.77,-39.863 -27.637,0 -51.23,8.574 -44.883,38.437 l 43.535,0 c -0.683,-3.183 -0.722,-6.348 0.528,-8.75 1.269,-2.207 3.808,-3.644 8.105,-3.644 6.68,0 11.875,4.289 12.949,9.386 0.918,4.278 -1.933,6.504 -5.957,7.762 l -30.214,9.539 c -16.524,5.238 -20.45,15.883 -17.325,30.649 5.078,23.835 27.168,37.332 60.684,37.332 28.594,0 48.144,-8.887 42.48,-35.575 l -40.664,0"
         style="fill:#231f20;fill-opacity:1;fill-rule:nonzero;stroke:none"
         id="path20"
         inkscape:connector-curvature="0" /><path
         d="m 878.164,376.719 87.207,0 -6.348,-29.871 -43.691,0 -2.598,-12.227 40.332,0 -6.347,-29.863 -40.332,0 -2.735,-12.871 45.098,0 -6.348,-29.864 -88.632,0 24.394,114.696"
         style="fill:#231f20;fill-opacity:1;fill-rule:nonzero;stroke:none"
         id="path22"
         inkscape:connector-curvature="0" /><path
         d="m 1031.05,328.898 c 8.75,0 15.75,3.028 17.56,11.598 1.8,8.41 -3.71,10.16 -12.59,10.16 l -4.14,0 -4.61,-21.758 3.78,0 z m -33.277,47.821 67.837,0 c 24.6,0 37.48,-7.473 32.89,-29.071 -2.82,-13.183 -10.49,-23.203 -28.54,-27.324 l -0.06,-0.312 c 10.92,-0.957 15.9,-5.879 16.27,-14.621 0.45,-9.856 -3.32,-26.055 -1.76,-43.368 l -44.47,0 c -0.88,8.594 0.76,23.036 1.27,32.887 0.27,5.727 -2.13,7.934 -9.43,7.934 l -5.24,0 -8.69,-40.821 -44.471,0 24.394,114.696"
         style="fill:#231f20;fill-opacity:1;fill-rule:nonzero;stroke:none"
         id="path24"
         inkscape:connector-curvature="0" /><path
         d="m 1226.41,304.445 c -6.72,-31.621 -34.93,-45.429 -63.36,-45.429 -40.18,0 -53.56,24.453 -45.82,60.839 6.48,35.731 32.91,59.872 71.66,59.872 28.9,0 50.88,-11.747 43.86,-45.43 l -41.62,0 c 2.15,13.039 -2.09,15.574 -7.63,15.574 -11.76,0 -15.45,-12.066 -19.36,-30.504 -3.71,-17.461 -5.53,-30.5 5.9,-30.5 5.88,0 10.59,3.504 13.79,15.578 l 42.58,0"
         style="fill:#231f20;fill-opacity:1;fill-rule:nonzero;stroke:none"
         id="path26"
         inkscape:connector-curvature="0" /><path
         d="m 670.527,142.422 c -6.718,-31.621 -34.922,-45.4298 -63.336,-45.4298 -40.183,0 -53.574,24.4528 -45.839,60.8398 6.496,35.723 32.91,59.883 71.656,59.883 28.926,0 50.879,-11.758 43.887,-45.43 l -41.622,0 c 2.129,13.028 -2.089,15.567 -7.652,15.567 -11.758,0 -15.43,-12.071 -19.344,-30.508 -3.722,-17.461 -5.539,-30.489 5.899,-30.489 5.879,0 10.594,3.497 13.789,15.567 l 42.562,0"
         style="fill:#231f20;fill-opacity:1;fill-rule:nonzero;stroke:none"
         id="path28"
         inkscape:connector-curvature="0" /><path
         d="m 751.934,166.875 c 8.75,0 15.742,3.027 17.558,11.602 1.778,8.418 -3.711,10.156 -12.597,10.156 l -4.141,0 -4.629,-21.758 3.809,0 z m -38.125,47.813 67.832,0 c 24.629,0 37.5,-7.461 32.89,-29.063 -2.812,-13.184 -10.488,-23.184 -28.515,-27.324 l -0.078,-0.313 c 10.917,-0.957 15.917,-5.879 16.269,-14.609 0.449,-9.863 -3.32,-26.055 -1.758,-43.379 l -44.472,0 c -0.879,8.574 0.761,23.027 1.289,32.891 0.254,5.703 -2.149,7.949 -9.434,7.949 l -5.254,0 -8.672,-40.84 -44.472,0 24.375,114.688"
         style="fill:#231f20;fill-opacity:1;fill-rule:nonzero;stroke:none"
         id="path30"
         inkscape:connector-curvature="0" /><path
         d="m 900.801,182.129 c 1.347,7.148 -2.09,9.531 -7.969,9.531 -7.324,0 -11.172,-3.183 -11.914,-6.68 -0.879,-4.121 1.465,-5.878 5.898,-7.304 8.204,-2.539 23.575,-5.703 34.122,-10.645 13.183,-6.035 17.343,-16.367 14.394,-30.176 -5.977,-28.105 -31.348,-39.8628 -63.75,-39.8628 -27.637,0 -51.23,8.5738 -44.883,38.4378 l 43.516,0 c -0.664,-3.184 -0.703,-6.348 0.527,-8.731 1.289,-2.226 3.828,-3.672 8.106,-3.672 6.679,0 11.894,4.297 12.968,9.375 0.918,4.297 -1.953,6.524 -5.976,7.793 l -30.215,9.532 c -16.504,5.234 -20.449,15.878 -17.305,30.664 5.059,23.828 27.149,37.324 60.684,37.324 28.574,0 48.125,-8.906 42.461,-35.586 l -40.664,0"
         style="fill:#231f20;fill-opacity:1;fill-rule:nonzero;stroke:none"
         id="path32"
         inkscape:connector-curvature="0" /><path
         d="m 979.023,214.688 54.497,0 9.53,-69.415 0.33,0 14.75,69.415 36.85,0 -24.39,-114.688 -54.48,0 -9.43,69.902 -0.33,0 -14.866,-69.902 -36.855,0 24.394,114.688"
         style="fill:#231f20;fill-opacity:1;fill-rule:nonzero;stroke:none"
         id="path34"
         inkscape:connector-curvature="0" /><path
         d="m 1170.61,164.648 59.08,0 -12.78,-60.039 c -18.77,-4.609 -40.05,-7.6168 -58.8,-7.6168 -41.29,0 -56.1,25.2538 -48.64,60.3518 7.46,35.117 33.01,60.371 75.59,60.371 35.25,0 51.23,-11.602 45.99,-38.457 l -42.57,0 c 0.62,3.672 -0.32,6.055 -1.92,7.48 -1.6,1.426 -4.16,2.071 -7.01,2.071 -6.84,0 -12.03,-3.496 -15.23,-8.106 -3.21,-4.609 -6.23,-15.898 -8.3,-25.586 -2.37,-11.113 -3.03,-18.73 -1.74,-22.383 1.68,-4.765 5.68,-6.836 11.56,-6.836 4.3,0 8.55,0.645 12.58,2.383 l 2.95,13.828 -15.57,0 4.81,22.539"
         style="fill:#231f20;fill-opacity:1;fill-rule:nonzero;stroke:none"
         id="path36"
         inkscape:connector-curvature="0" /></g></g></svg>