<?xml version="1.0" encoding="UTF-8" standalone="no"?>
<!-- Created with Inkscape (http://www.inkscape.org/) -->

<svg
   xmlns:dc="http://purl.org/dc/elements/1.1/"
   xmlns:cc="http://creativecommons.org/ns#"
   xmlns:rdf="http://www.w3.org/1999/02/22-rdf-syntax-ns#"
   xmlns:svg="http://www.w3.org/2000/svg"
   xmlns="http://www.w3.org/2000/svg"
   version="1.1"
   width="584.62335"
   height="373.34726"
   id="svg7201"
   xml:space="preserve"><metadata
     id="metadata7207"><rdf:RDF><cc:Work
         rdf:about=""><dc:format>image/svg+xml</dc:format><dc:type
           rdf:resource="http://purl.org/dc/dcmitype/StillImage" /><dc:title></dc:title></cc:Work></rdf:RDF></metadata><defs
     id="defs7205"><clipPath
       id="clipPath7217"><path
         d="M 0,0 800,0 800,600 0,600 0,0 z"
         id="path7219" /></clipPath><clipPath
       id="clipPath7251"><path
         d="m 5.40918,358.0529 -1e-5,230.6612 21.21412,0 10e-6,-230.6612 -21.21412,0 z"
         id="path7253" /></clipPath><clipPath
       id="clipPath7257"><path
         d="M 0,0 800,0 800,600 0,600 0,0 z"
         id="path7259" /></clipPath><clipPath
       id="clipPath7271"><path
         d="m 36.62329,351.2865 8.5,0 0,13.53271 -8.5,0 0,-13.53271 z"
         id="path7273" /></clipPath><clipPath
       id="clipPath7285"><path
         d="m 31.12329,397.4188 14,0 0,13.53271 -14,0 0,-13.53271 z"
         id="path7287" /></clipPath><clipPath
       id="clipPath7299"><path
         d="m 31.12329,443.551 14,0 0,13.53271 -14,0 0,-13.53271 z"
         id="path7301" /></clipPath><clipPath
       id="clipPath7313"><path
         d="m 25.62329,489.6833 19.5,0 0,13.53271 -19.5,0 0,-13.53271 z"
         id="path7315" /></clipPath><clipPath
       id="clipPath7327"><path
         d="m 25.62329,535.8155 19.5,0 0,13.53271 -19.5,0 0,-13.53271 z"
         id="path7329" /></clipPath><clipPath
       id="clipPath7341"><path
         d="m 25.62329,581.9478 19.5,0 0,13.53271 -19.5,0 0,-13.53271 z"
         id="path7343" /></clipPath><clipPath
       id="clipPath7355"><path
         d="M 0,0 800,0 800,600 0,600 0,0 z"
         id="path7357" /></clipPath><clipPath
       id="clipPath7367"><path
         d="m 55.21411,309.2479 402.3142,0 0,21.21411 -402.3142,0 0,-21.21411 z"
         id="path7369" /></clipPath><clipPath
       id="clipPath7381"><path
         d="m 48.44775,329.462 0,25 13.53272,0 0,-25 -13.53272,0 z"
         id="path7383" /></clipPath><clipPath
       id="clipPath7387"><path
         d="M 0,0 800,0 800,600 0,600 0,0 z"
         id="path7389" /></clipPath><clipPath
       id="clipPath7401"><path
         d="m 67.60557,329.462 0,25 13.53272,0 0,-25 -13.53272,0 z"
         id="path7403" /></clipPath><clipPath
       id="clipPath7407"><path
         d="M 0,0 800,0 800,600 0,600 0,0 z"
         id="path7409" /></clipPath><clipPath
       id="clipPath7421"><path
         d="m 86.76339,329.462 0,25 13.53271,0 0,-25 -13.53271,0 z"
         id="path7423" /></clipPath><clipPath
       id="clipPath7427"><path
         d="M 0,0 800,0 800,600 0,600 0,0 z"
         id="path7429" /></clipPath><clipPath
       id="clipPath7441"><path
         d="m 105.9212,329.462 0,25 13.5327,0 0,-25 -13.5327,0 z"
         id="path7443" /></clipPath><clipPath
       id="clipPath7447"><path
         d="M 0,0 800,0 800,600 0,600 0,0 z"
         id="path7449" /></clipPath><clipPath
       id="clipPath7461"><path
         d="m 125.079,329.462 0,25 13.5327,0 0,-25 -13.5327,0 z"
         id="path7463" /></clipPath><clipPath
       id="clipPath7467"><path
         d="M 0,0 800,0 800,600 0,600 0,0 z"
         id="path7469" /></clipPath><clipPath
       id="clipPath7481"><path
         d="m 144.2368,329.462 0,25 13.5328,0 0,-25 -13.5328,0 z"
         id="path7483" /></clipPath><clipPath
       id="clipPath7487"><path
         d="M 0,0 800,0 800,600 0,600 0,0 z"
         id="path7489" /></clipPath><clipPath
       id="clipPath7501"><path
         d="m 163.3947,329.462 0,25 13.5327,0 0,-25 -13.5327,0 z"
         id="path7503" /></clipPath><clipPath
       id="clipPath7507"><path
         d="M 0,0 800,0 800,600 0,600 0,0 z"
         id="path7509" /></clipPath><clipPath
       id="clipPath7521"><path
         d="m 182.5525,329.462 0,25 13.5327,0 0,-25 -13.5327,0 z"
         id="path7523" /></clipPath><clipPath
       id="clipPath7527"><path
         d="M 0,0 800,0 800,600 0,600 0,0 z"
         id="path7529" /></clipPath><clipPath
       id="clipPath7541"><path
         d="m 201.7103,329.462 0,25 13.5327,0 0,-25 -13.5327,0 z"
         id="path7543" /></clipPath><clipPath
       id="clipPath7547"><path
         d="M 0,0 800,0 800,600 0,600 0,0 z"
         id="path7549" /></clipPath><clipPath
       id="clipPath7561"><path
         d="m 220.8681,329.462 0,25 13.5327,0 0,-25 -13.5327,0 z"
         id="path7563" /></clipPath><clipPath
       id="clipPath7567"><path
         d="M 0,0 800,0 800,600 0,600 0,0 z"
         id="path7569" /></clipPath><clipPath
       id="clipPath7581"><path
         d="m 240.0259,329.462 0,25 13.5327,0 0,-25 -13.5327,0 z"
         id="path7583" /></clipPath><clipPath
       id="clipPath7587"><path
         d="M 0,0 800,0 800,600 0,600 0,0 z"
         id="path7589" /></clipPath><clipPath
       id="clipPath7601"><path
         d="m 259.1838,329.462 0,25 13.5327,0 0,-25 -13.5327,0 z"
         id="path7603" /></clipPath><clipPath
       id="clipPath7607"><path
         d="M 0,0 800,0 800,600 0,600 0,0 z"
         id="path7609" /></clipPath><clipPath
       id="clipPath7621"><path
         d="m 278.3416,329.462 0,25 13.5327,0 0,-25 -13.5327,0 z"
         id="path7623" /></clipPath><clipPath
       id="clipPath7627"><path
         d="M 0,0 800,0 800,600 0,600 0,0 z"
         id="path7629" /></clipPath><clipPath
       id="clipPath7641"><path
         d="m 297.4994,329.462 0,25 13.5327,0 0,-25 -13.5327,0 z"
         id="path7643" /></clipPath><clipPath
       id="clipPath7647"><path
         d="M 0,0 800,0 800,600 0,600 0,0 z"
         id="path7649" /></clipPath><clipPath
       id="clipPath7661"><path
         d="m 316.6572,329.462 0,25 13.5327,0 0,-25 -13.5327,0 z"
         id="path7663" /></clipPath><clipPath
       id="clipPath7667"><path
         d="M 0,0 800,0 800,600 0,600 0,0 z"
         id="path7669" /></clipPath><clipPath
       id="clipPath7681"><path
         d="m 335.815,329.462 0,25 13.5327,0 0,-25 -13.5327,0 z"
         id="path7683" /></clipPath><clipPath
       id="clipPath7687"><path
         d="M 0,0 800,0 800,600 0,600 0,0 z"
         id="path7689" /></clipPath><clipPath
       id="clipPath7701"><path
         d="m 354.9728,329.462 0,25 13.5328,0 0,-25 -13.5328,0 z"
         id="path7703" /></clipPath><clipPath
       id="clipPath7707"><path
         d="M 0,0 800,0 800,600 0,600 0,0 z"
         id="path7709" /></clipPath><clipPath
       id="clipPath7721"><path
         d="m 374.1307,329.462 0,25 13.5327,0 0,-25 -13.5327,0 z"
         id="path7723" /></clipPath><clipPath
       id="clipPath7727"><path
         d="M 0,0 800,0 800,600 0,600 0,0 z"
         id="path7729" /></clipPath><clipPath
       id="clipPath7741"><path
         d="m 393.2885,329.462 0,25 13.5327,0 0,-25 -13.5327,0 z"
         id="path7743" /></clipPath><clipPath
       id="clipPath7747"><path
         d="M 0,0 800,0 800,600 0,600 0,0 z"
         id="path7749" /></clipPath><clipPath
       id="clipPath7761"><path
         d="m 412.4463,329.8702 0,24.5918 13.5327,0 0,-24.5918 -13.5327,0 z"
         id="path7763" /></clipPath><clipPath
       id="clipPath7767"><path
         d="M 0,0 800,0 800,600 0,600 0,0 z"
         id="path7769" /></clipPath><clipPath
       id="clipPath7781"><path
         d="m 431.6041,329.462 0,25 13.5327,0 0,-25 -13.5327,0 z"
         id="path7783" /></clipPath><clipPath
       id="clipPath7787"><path
         d="M 0,0 800,0 800,600 0,600 0,0 z"
         id="path7789" /></clipPath><clipPath
       id="clipPath7801"><path
         d="m 450.7619,329.462 0,25 13.5327,0 0,-25 -13.5327,0 z"
         id="path7803" /></clipPath><clipPath
       id="clipPath7807"><path
         d="M 0,0 800,0 800,600 0,600 0,0 z"
         id="path7809" /></clipPath><clipPath
       id="clipPath7821"><path
         d="m 55,358.0529 403,0 0,220.4096 -403,0 0,-220.4096 z"
         id="path7823" /></clipPath><clipPath
       id="clipPath7831"><path
         d="m 55,358.0529 403,0 0,64.07257 -403,0 0,-64.07257 z"
         id="path7833" /></clipPath><clipPath
       id="clipPath7841"><path
         d="M 0,0 800,0 800,600 0,600 0,0 z"
         id="path7843" /></clipPath></defs><g
     transform="matrix(1.25,0,0,-1.25,0,750)"
     id="g7209"><g
       id="g7211" /><g
       id="g7213"><g
         clip-path="url(#clipPath7217)"
         id="g7215"><path
           d="M 0,0 800,0 800,600 0,600 0,0 z"
           id="path7221"
           style="fill:#ffffff;fill-opacity:1;fill-rule:nonzero;stroke:none" /><path
           d="M 0,600 800,600 800,0 0,0 0,600 z"
           id="path7223"
           style="fill:#ffffff;fill-opacity:1;fill-rule:nonzero;stroke:none" /><path
           d="m 55,589 403,0 0,-231 -403,0 0,231 z"
           id="path7225"
           style="fill:#ffffff;fill-opacity:1;fill-rule:nonzero;stroke:none" /><g
           transform="matrix(1,0,0,-1,5.40918,600.2468)"
           id="g7227"><path
             d="m 49.59082,195.7468 402.99998,0"
             id="path7229"
             style="fill:none;stroke:#b8b8b8;stroke-width:1;stroke-linecap:butt;stroke-linejoin:miter;stroke-miterlimit:4;stroke-opacity:1;stroke-dasharray:none" /></g><g
           transform="matrix(1,0,0,-1,5.40918,600.2468)"
           id="g7231"><path
             d="m 49.59082,149.7468 402.99998,0"
             id="path7233"
             style="fill:none;stroke:#b8b8b8;stroke-width:1;stroke-linecap:butt;stroke-linejoin:miter;stroke-miterlimit:4;stroke-opacity:1;stroke-dasharray:none" /></g><g
           transform="matrix(1,0,0,-1,5.40918,600.2468)"
           id="g7235"><path
             d="m 49.59082,103.7468 402.99998,0"
             id="path7237"
             style="fill:none;stroke:#b8b8b8;stroke-width:1;stroke-linecap:butt;stroke-linejoin:miter;stroke-miterlimit:4;stroke-opacity:1;stroke-dasharray:none" /></g><g
           transform="matrix(1,0,0,-1,5.40918,600.2468)"
           id="g7239"><path
             d="m 49.59082,57.74683 402.99998,0"
             id="path7241"
             style="fill:none;stroke:#b8b8b8;stroke-width:1;stroke-linecap:butt;stroke-linejoin:miter;stroke-miterlimit:4;stroke-opacity:1;stroke-dasharray:none" /></g><g
           transform="matrix(1,0,0,-1,5.40918,600.2468)"
           id="g7243"><path
             d="m 49.59082,11.74683 402.99998,0"
             id="path7245"
             style="fill:none;stroke:#b8b8b8;stroke-width:1;stroke-linecap:butt;stroke-linejoin:miter;stroke-miterlimit:4;stroke-opacity:1;stroke-dasharray:none" /></g></g></g><g
       id="g7247"><g
         clip-path="url(#clipPath7251)"
         id="g7249"><g
           clip-path="url(#clipPath7257)"
           id="g7255"><g
             transform="matrix(0,1,-1,0,18.04492,422.9482)"
             id="g7261"><text
               transform="scale(1,-1)"
               id="text7263"><tspan
                 x="0 9.3886003 16.6192 27.4482 34.678799 40.4482 45.983601 49.233601 55.733601 60.062599 63.312599 70.543198 77.043198 84.273804 90.043198 95.812599"
                 y="0"
                 id="tspan7265"
                 style="font-size:13px;font-variant:normal;font-weight:bold;writing-mode:lr-tb;fill:#000000;fill-opacity:1;fill-rule:nonzero;stroke:none;font-family:TimesNewRomanPS;-inkscape-font-specification:TimesNewRomanPS-BoldMT">Number of papers</tspan></text>
</g></g></g></g><g
       id="g7267"><g
         clip-path="url(#clipPath7271)"
         id="g7269"><g
           transform="translate(38.12329,354.6659)"
           id="g7275"><text
             transform="scale(1,-1)"
             id="text7277"><tspan
               x="0"
               y="0"
               id="tspan7279"
               style="font-size:11px;font-variant:normal;font-weight:normal;writing-mode:lr-tb;fill:#000000;fill-opacity:1;fill-rule:nonzero;stroke:none;font-family:TimesNewRomanPSMT;-inkscape-font-specification:TimesNewRomanPSMT">0</tspan></text>
</g></g></g><g
       id="g7281"><g
         clip-path="url(#clipPath7285)"
         id="g7283"><g
           transform="translate(32.62329,400.7981)"
           id="g7289"><text
             transform="scale(1,-1)"
             id="text7291"><tspan
               x="0 5.5"
               y="0"
               id="tspan7293"
               style="font-size:11px;font-variant:normal;font-weight:normal;writing-mode:lr-tb;fill:#000000;fill-opacity:1;fill-rule:nonzero;stroke:none;font-family:TimesNewRomanPSMT;-inkscape-font-specification:TimesNewRomanPSMT">36</tspan></text>
</g></g></g><g
       id="g7295"><g
         clip-path="url(#clipPath7299)"
         id="g7297"><g
           transform="translate(32.62329,446.9304)"
           id="g7303"><text
             transform="scale(1,-1)"
             id="text7305"><tspan
               x="0 5.5"
               y="0"
               id="tspan7307"
               style="font-size:11px;font-variant:normal;font-weight:normal;writing-mode:lr-tb;fill:#000000;fill-opacity:1;fill-rule:nonzero;stroke:none;font-family:TimesNewRomanPSMT;-inkscape-font-specification:TimesNewRomanPSMT">72</tspan></text>
</g></g></g><g
       id="g7309"><g
         clip-path="url(#clipPath7313)"
         id="g7311"><g
           transform="translate(27.12329,493.0626)"
           id="g7317"><text
             transform="scale(1,-1)"
             id="text7319"><tspan
               x="0 5.5 11"
               y="0"
               id="tspan7321"
               style="font-size:11px;font-variant:normal;font-weight:normal;writing-mode:lr-tb;fill:#000000;fill-opacity:1;fill-rule:nonzero;stroke:none;font-family:TimesNewRomanPSMT;-inkscape-font-specification:TimesNewRomanPSMT">108</tspan></text>
</g></g></g><g
       id="g7323"><g
         clip-path="url(#clipPath7327)"
         id="g7325"><g
           transform="translate(27.12329,539.1949)"
           id="g7331"><text
             transform="scale(1,-1)"
             id="text7333"><tspan
               x="0 5.5 11"
               y="0"
               id="tspan7335"
               style="font-size:11px;font-variant:normal;font-weight:normal;writing-mode:lr-tb;fill:#000000;fill-opacity:1;fill-rule:nonzero;stroke:none;font-family:TimesNewRomanPSMT;-inkscape-font-specification:TimesNewRomanPSMT">144</tspan></text>
</g></g></g><g
       id="g7337"><g
         clip-path="url(#clipPath7341)"
         id="g7339"><g
           transform="translate(27.12329,585.3271)"
           id="g7345"><text
             transform="scale(1,-1)"
             id="text7347"><tspan
               x="0 5.5 11"
               y="0"
               id="tspan7349"
               style="font-size:11px;font-variant:normal;font-weight:normal;writing-mode:lr-tb;fill:#000000;fill-opacity:1;fill-rule:nonzero;stroke:none;font-family:TimesNewRomanPSMT;-inkscape-font-specification:TimesNewRomanPSMT">180</tspan></text>
</g></g></g><g
       id="g7351"><g
         clip-path="url(#clipPath7355)"
         id="g7353"><g
           transform="matrix(1,0,0,-1,5.40918,600.2468)"
           id="g7359"><path
             d="m 50.09082,241.7468 401.99998,0"
             id="path7361"
             style="fill:none;stroke:#000000;stroke-width:1;stroke-linecap:square;stroke-linejoin:miter;stroke-miterlimit:4;stroke-opacity:1;stroke-dasharray:none" /></g></g></g><g
       id="g7363"><g
         clip-path="url(#clipPath7367)"
         id="g7365"><g
           transform="translate(240.848,312.0599)"
           id="g7371"><text
             transform="scale(1,-1)"
             id="text7373"><tspan
               x="0 7.9468999 13.7163 20.216299 25.985701"
               y="0"
               id="tspan7375"
               style="font-size:13px;font-variant:normal;font-weight:bold;writing-mode:lr-tb;fill:#000000;fill-opacity:1;fill-rule:nonzero;stroke:none;font-family:TimesNewRomanPS;-inkscape-font-specification:TimesNewRomanPS-BoldMT">Years</tspan></text>
</g></g></g><g
       id="g7377"><g
         clip-path="url(#clipPath7381)"
         id="g7379"><g
           clip-path="url(#clipPath7387)"
           id="g7385"><g
             transform="matrix(0,1,-1,0,58.60108,330.962)"
             id="g7391"><text
               transform="scale(1,-1)"
               id="text7393"><tspan
                 x="0 5.5 11 16.5"
                 y="0"
                 id="tspan7395"
                 style="font-size:11px;font-variant:normal;font-weight:normal;writing-mode:lr-tb;fill:#000000;fill-opacity:1;fill-rule:nonzero;stroke:none;font-family:TimesNewRomanPSMT;-inkscape-font-specification:TimesNewRomanPSMT">1992</tspan></text>
</g></g></g></g><g
       id="g7397"><g
         clip-path="url(#clipPath7401)"
         id="g7399"><g
           clip-path="url(#clipPath7407)"
           id="g7405"><g
             transform="matrix(0,1,-1,0,77.75889,330.962)"
             id="g7411"><text
               transform="scale(1,-1)"
               id="text7413"><tspan
                 x="0 5.5 11 16.5"
                 y="0"
                 id="tspan7415"
                 style="font-size:11px;font-variant:normal;font-weight:normal;writing-mode:lr-tb;fill:#000000;fill-opacity:1;fill-rule:nonzero;stroke:none;font-family:TimesNewRomanPSMT;-inkscape-font-specification:TimesNewRomanPSMT">1993</tspan></text>
</g></g></g></g><g
       id="g7417"><g
         clip-path="url(#clipPath7421)"
         id="g7419"><g
           clip-path="url(#clipPath7427)"
           id="g7425"><g
             transform="matrix(0,1,-1,0,96.91671,330.962)"
             id="g7431"><text
               transform="scale(1,-1)"
               id="text7433"><tspan
                 x="0 5.5 11 16.5"
                 y="0"
                 id="tspan7435"
                 style="font-size:11px;font-variant:normal;font-weight:normal;writing-mode:lr-tb;fill:#000000;fill-opacity:1;fill-rule:nonzero;stroke:none;font-family:TimesNewRomanPSMT;-inkscape-font-specification:TimesNewRomanPSMT">1994</tspan></text>
</g></g></g></g><g
       id="g7437"><g
         clip-path="url(#clipPath7441)"
         id="g7439"><g
           clip-path="url(#clipPath7447)"
           id="g7445"><g
             transform="matrix(0,1,-1,0,116.0745,330.962)"
             id="g7451"><text
               transform="scale(1,-1)"
               id="text7453"><tspan
                 x="0 5.5 11 16.5"
                 y="0"
                 id="tspan7455"
                 style="font-size:11px;font-variant:normal;font-weight:normal;writing-mode:lr-tb;fill:#000000;fill-opacity:1;fill-rule:nonzero;stroke:none;font-family:TimesNewRomanPSMT;-inkscape-font-specification:TimesNewRomanPSMT">1995</tspan></text>
</g></g></g></g><g
       id="g7457"><g
         clip-path="url(#clipPath7461)"
         id="g7459"><g
           clip-path="url(#clipPath7467)"
           id="g7465"><g
             transform="matrix(0,1,-1,0,135.2323,330.962)"
             id="g7471"><text
               transform="scale(1,-1)"
               id="text7473"><tspan
                 x="0 5.5 11 16.5"
                 y="0"
                 id="tspan7475"
                 style="font-size:11px;font-variant:normal;font-weight:normal;writing-mode:lr-tb;fill:#000000;fill-opacity:1;fill-rule:nonzero;stroke:none;font-family:TimesNewRomanPSMT;-inkscape-font-specification:TimesNewRomanPSMT">1996</tspan></text>
</g></g></g></g><g
       id="g7477"><g
         clip-path="url(#clipPath7481)"
         id="g7479"><g
           clip-path="url(#clipPath7487)"
           id="g7485"><g
             transform="matrix(0,1,-1,0,154.3902,330.962)"
             id="g7491"><text
               transform="scale(1,-1)"
               id="text7493"><tspan
                 x="0 5.5 11 16.5"
                 y="0"
                 id="tspan7495"
                 style="font-size:11px;font-variant:normal;font-weight:normal;writing-mode:lr-tb;fill:#000000;fill-opacity:1;fill-rule:nonzero;stroke:none;font-family:TimesNewRomanPSMT;-inkscape-font-specification:TimesNewRomanPSMT">1997</tspan></text>
</g></g></g></g><g
       id="g7497"><g
         clip-path="url(#clipPath7501)"
         id="g7499"><g
           clip-path="url(#clipPath7507)"
           id="g7505"><g
             transform="matrix(0,1,-1,0,173.548,330.962)"
             id="g7511"><text
               transform="scale(1,-1)"
               id="text7513"><tspan
                 x="0 5.5 11 16.5"
                 y="0"
                 id="tspan7515"
                 style="font-size:11px;font-variant:normal;font-weight:normal;writing-mode:lr-tb;fill:#000000;fill-opacity:1;fill-rule:nonzero;stroke:none;font-family:TimesNewRomanPSMT;-inkscape-font-specification:TimesNewRomanPSMT">1998</tspan></text>
</g></g></g></g><g
       id="g7517"><g
         clip-path="url(#clipPath7521)"
         id="g7519"><g
           clip-path="url(#clipPath7527)"
           id="g7525"><g
             transform="matrix(0,1,-1,0,192.7058,330.962)"
             id="g7531"><text
               transform="scale(1,-1)"
               id="text7533"><tspan
                 x="0 5.5 11 16.5"
                 y="0"
                 id="tspan7535"
                 style="font-size:11px;font-variant:normal;font-weight:normal;writing-mode:lr-tb;fill:#000000;fill-opacity:1;fill-rule:nonzero;stroke:none;font-family:TimesNewRomanPSMT;-inkscape-font-specification:TimesNewRomanPSMT">1999</tspan></text>
</g></g></g></g><g
       id="g7537"><g
         clip-path="url(#clipPath7541)"
         id="g7539"><g
           clip-path="url(#clipPath7547)"
           id="g7545"><g
             transform="matrix(0,1,-1,0,211.8636,330.962)"
             id="g7551"><text
               transform="scale(1,-1)"
               id="text7553"><tspan
                 x="0 5.5 11 16.5"
                 y="0"
                 id="tspan7555"
                 style="font-size:11px;font-variant:normal;font-weight:normal;writing-mode:lr-tb;fill:#000000;fill-opacity:1;fill-rule:nonzero;stroke:none;font-family:TimesNewRomanPSMT;-inkscape-font-specification:TimesNewRomanPSMT">2000</tspan></text>
</g></g></g></g><g
       id="g7557"><g
         clip-path="url(#clipPath7561)"
         id="g7559"><g
           clip-path="url(#clipPath7567)"
           id="g7565"><g
             transform="matrix(0,1,-1,0,231.0214,330.962)"
             id="g7571"><text
               transform="scale(1,-1)"
               id="text7573"><tspan
                 x="0 5.5 11 16.5"
                 y="0"
                 id="tspan7575"
                 style="font-size:11px;font-variant:normal;font-weight:normal;writing-mode:lr-tb;fill:#000000;fill-opacity:1;fill-rule:nonzero;stroke:none;font-family:TimesNewRomanPSMT;-inkscape-font-specification:TimesNewRomanPSMT">2001</tspan></text>
</g></g></g></g><g
       id="g7577"><g
         clip-path="url(#clipPath7581)"
         id="g7579"><g
           clip-path="url(#clipPath7587)"
           id="g7585"><g
             transform="matrix(0,1,-1,0,250.1793,330.962)"
             id="g7591"><text
               transform="scale(1,-1)"
               id="text7593"><tspan
                 x="0 5.5 11 16.5"
                 y="0"
                 id="tspan7595"
                 style="font-size:11px;font-variant:normal;font-weight:normal;writing-mode:lr-tb;fill:#000000;fill-opacity:1;fill-rule:nonzero;stroke:none;font-family:TimesNewRomanPSMT;-inkscape-font-specification:TimesNewRomanPSMT">2002</tspan></text>
</g></g></g></g><g
       id="g7597"><g
         clip-path="url(#clipPath7601)"
         id="g7599"><g
           clip-path="url(#clipPath7607)"
           id="g7605"><g
             transform="matrix(0,1,-1,0,269.3371,330.962)"
             id="g7611"><text
               transform="scale(1,-1)"
               id="text7613"><tspan
                 x="0 5.5 11 16.5"
                 y="0"
                 id="tspan7615"
                 style="font-size:11px;font-variant:normal;font-weight:normal;writing-mode:lr-tb;fill:#000000;fill-opacity:1;fill-rule:nonzero;stroke:none;font-family:TimesNewRomanPSMT;-inkscape-font-specification:TimesNewRomanPSMT">2003</tspan></text>
</g></g></g></g><g
       id="g7617"><g
         clip-path="url(#clipPath7621)"
         id="g7619"><g
           clip-path="url(#clipPath7627)"
           id="g7625"><g
             transform="matrix(0,1,-1,0,288.4949,330.962)"
             id="g7631"><text
               transform="scale(1,-1)"
               id="text7633"><tspan
                 x="0 5.5 11 16.5"
                 y="0"
                 id="tspan7635"
                 style="font-size:11px;font-variant:normal;font-weight:normal;writing-mode:lr-tb;fill:#000000;fill-opacity:1;fill-rule:nonzero;stroke:none;font-family:TimesNewRomanPSMT;-inkscape-font-specification:TimesNewRomanPSMT">2004</tspan></text>
</g></g></g></g><g
       id="g7637"><g
         clip-path="url(#clipPath7641)"
         id="g7639"><g
           clip-path="url(#clipPath7647)"
           id="g7645"><g
             transform="matrix(0,1,-1,0,307.6527,330.962)"
             id="g7651"><text
               transform="scale(1,-1)"
               id="text7653"><tspan
                 x="0 5.5 11 16.5"
                 y="0"
                 id="tspan7655"
                 style="font-size:11px;font-variant:normal;font-weight:normal;writing-mode:lr-tb;fill:#000000;fill-opacity:1;fill-rule:nonzero;stroke:none;font-family:TimesNewRomanPSMT;-inkscape-font-specification:TimesNewRomanPSMT">2005</tspan></text>
</g></g></g></g><g
       id="g7657"><g
         clip-path="url(#clipPath7661)"
         id="g7659"><g
           clip-path="url(#clipPath7667)"
           id="g7665"><g
             transform="matrix(0,1,-1,0,326.8105,330.962)"
             id="g7671"><text
               transform="scale(1,-1)"
               id="text7673"><tspan
                 x="0 5.5 11 16.5"
                 y="0"
                 id="tspan7675"
                 style="font-size:11px;font-variant:normal;font-weight:normal;writing-mode:lr-tb;fill:#000000;fill-opacity:1;fill-rule:nonzero;stroke:none;font-family:TimesNewRomanPSMT;-inkscape-font-specification:TimesNewRomanPSMT">2006</tspan></text>
</g></g></g></g><g
       id="g7677"><g
         clip-path="url(#clipPath7681)"
         id="g7679"><g
           clip-path="url(#clipPath7687)"
           id="g7685"><g
             transform="matrix(0,1,-1,0,345.9683,330.962)"
             id="g7691"><text
               transform="scale(1,-1)"
               id="text7693"><tspan
                 x="0 5.5 11 16.5"
                 y="0"
                 id="tspan7695"
                 style="font-size:11px;font-variant:normal;font-weight:normal;writing-mode:lr-tb;fill:#000000;fill-opacity:1;fill-rule:nonzero;stroke:none;font-family:TimesNewRomanPSMT;-inkscape-font-specification:TimesNewRomanPSMT">2007</tspan></text>
</g></g></g></g><g
       id="g7697"><g
         clip-path="url(#clipPath7701)"
         id="g7699"><g
           clip-path="url(#clipPath7707)"
           id="g7705"><g
             transform="matrix(0,1,-1,0,365.1262,330.962)"
             id="g7711"><text
               transform="scale(1,-1)"
               id="text7713"><tspan
                 x="0 5.5 11 16.5"
                 y="0"
                 id="tspan7715"
                 style="font-size:11px;font-variant:normal;font-weight:normal;writing-mode:lr-tb;fill:#000000;fill-opacity:1;fill-rule:nonzero;stroke:none;font-family:TimesNewRomanPSMT;-inkscape-font-specification:TimesNewRomanPSMT">2008</tspan></text>
</g></g></g></g><g
       id="g7717"><g
         clip-path="url(#clipPath7721)"
         id="g7719"><g
           clip-path="url(#clipPath7727)"
           id="g7725"><g
             transform="matrix(0,1,-1,0,384.284,330.962)"
             id="g7731"><text
               transform="scale(1,-1)"
               id="text7733"><tspan
                 x="0 5.5 11 16.5"
                 y="0"
                 id="tspan7735"
                 style="font-size:11px;font-variant:normal;font-weight:normal;writing-mode:lr-tb;fill:#000000;fill-opacity:1;fill-rule:nonzero;stroke:none;font-family:TimesNewRomanPSMT;-inkscape-font-specification:TimesNewRomanPSMT">2009</tspan></text>
</g></g></g></g><g
       id="g7737"><g
         clip-path="url(#clipPath7741)"
         id="g7739"><g
           clip-path="url(#clipPath7747)"
           id="g7745"><g
             transform="matrix(0,1,-1,0,403.4418,330.962)"
             id="g7751"><text
               transform="scale(1,-1)"
               id="text7753"><tspan
                 x="0 5.5 11 16.5"
                 y="0"
                 id="tspan7755"
                 style="font-size:11px;font-variant:normal;font-weight:normal;writing-mode:lr-tb;fill:#000000;fill-opacity:1;fill-rule:nonzero;stroke:none;font-family:TimesNewRomanPSMT;-inkscape-font-specification:TimesNewRomanPSMT">2010</tspan></text>
</g></g></g></g><g
       id="g7757"><g
         clip-path="url(#clipPath7761)"
         id="g7759"><g
           clip-path="url(#clipPath7767)"
           id="g7765"><g
             transform="matrix(0,1,-1,0,422.5996,331.3702)"
             id="g7771"><text
               transform="scale(1,-1)"
               id="text7773"><tspan
                 x="0 5.5 11 16.0919"
                 y="0"
                 id="tspan7775"
                 style="font-size:11px;font-variant:normal;font-weight:normal;writing-mode:lr-tb;fill:#000000;fill-opacity:1;fill-rule:nonzero;stroke:none;font-family:TimesNewRomanPSMT;-inkscape-font-specification:TimesNewRomanPSMT">2011</tspan></text>
</g></g></g></g><g
       id="g7777"><g
         clip-path="url(#clipPath7781)"
         id="g7779"><g
           clip-path="url(#clipPath7787)"
           id="g7785"><g
             transform="matrix(0,1,-1,0,441.7574,330.962)"
             id="g7791"><text
               transform="scale(1,-1)"
               id="text7793"><tspan
                 x="0 5.5 11 16.5"
                 y="0"
                 id="tspan7795"
                 style="font-size:11px;font-variant:normal;font-weight:normal;writing-mode:lr-tb;fill:#000000;fill-opacity:1;fill-rule:nonzero;stroke:none;font-family:TimesNewRomanPSMT;-inkscape-font-specification:TimesNewRomanPSMT">2012</tspan></text>
</g></g></g></g><g
       id="g7797"><g
         clip-path="url(#clipPath7801)"
         id="g7799"><g
           clip-path="url(#clipPath7807)"
           id="g7805"><g
             transform="matrix(0,1,-1,0,460.9153,330.962)"
             id="g7811"><text
               transform="scale(1,-1)"
               id="text7813"><tspan
                 x="0 5.5 11 16.5"
                 y="0"
                 id="tspan7815"
                 style="font-size:11px;font-variant:normal;font-weight:normal;writing-mode:lr-tb;fill:#000000;fill-opacity:1;fill-rule:nonzero;stroke:none;font-family:TimesNewRomanPSMT;-inkscape-font-specification:TimesNewRomanPSMT">2013</tspan></text>
</g></g></g></g><g
       id="g7817"><g
         clip-path="url(#clipPath7821)"
         id="g7819"><path
           d="m 55,360.6158 19.19048,-2.5629 19.19047,5.1258 19.19045,5.1258 19.1905,2.5629 19.1905,8.9701 19.1905,-6.4072 19.1904,0 19.1905,12.8145 19.1905,-8.9702 19.1905,19.2218 19.1904,7.6887 19.1905,11.5331 19.1905,11.533 19.1905,53.821 19.1904,8.9702 19.1905,-6.4073 19.1905,34.5992 19.1905,17.9403 19.1904,11.5331 19.1905,-15.3775 19.1905,46.1323 0,-220.4096 -403,0 0,2.5629"
           id="path7825"
           style="fill:#6ea45a;fill-opacity:1;fill-rule:nonzero;stroke:none" /></g></g><g
       id="g7827"><g
         clip-path="url(#clipPath7831)"
         id="g7829"><path
           d="m 55,359.3343 19.19048,0 19.19047,2.5629 19.19045,-3.8443 19.1905,10.2516 19.1905,0 19.1905,-1.2815 19.1904,-5.1258 19.1905,8.9702 19.1905,2.5629 19.1905,-3.8444 19.1904,6.4073 19.1905,6.4072 19.1905,0 19.1905,20.5033 19.1904,-3.8444 19.1905,1.2815 19.1905,15.3774 19.1905,-3.8444 19.1904,5.1258 19.1905,5.1258 19.1905,-3.8443 0,-60.2282 -403,0 0,1.2814"
           id="path7835"
           style="fill:#3b6c9d;fill-opacity:1;fill-rule:nonzero;stroke:none" /></g></g><g
       id="g7837"><g
         clip-path="url(#clipPath7841)"
         id="g7839"><g
           transform="translate(106.317,200.6889)"
           id="g7845"><text
             transform="scale(1,-1)"
             id="text7847"><tspan
               x="0 3.3336 11.3376 19.3416 27.3456 30.679199 38.683201 45.357601 48.023998 54.698399 58.694401 65.368797 68.045998 76.050003 82.724403 88.724403 95.398804 102.0732 108.0732 114.7476 118.0812 124.0812 130.7556 137.42999 141.42599 147.42599 154.1004 157.43401 161.42999 168.1044 174.77879 181.4532 188.12759 194.12759 197.4612 200.7948 207.46201 211.45799 214.7916 219.05161 227.718 234.3924 240.3924 247.0668 257.06281 263.73721 270.41159 273.74521 276.8688 283.75919 286.4256 289.75919 292.4256 299.10001 303.35999 306.6936 310.95361 314.2872 317.62079 324.2952 328.2912 334.96561 338.29919 340.96561 346.96561 353.64001 356.9736 365.64001 368.3064 374.9808 380.9808 387.65521 393.65521 396.9888 400.32239 408.32639 415.00079 417.66721 424.34161 427.6752 431.93521 435.2688 444.60239 453.2688 456.60239 460.8624 468.86639 475.5408 481.5408 484.87439 488.87039 495.5448 501.5448 504.87839 509.1384 512.47198 516.73199 520.06561 523.39917 530.07361 534.06958 540.74402 544.07758 546.74402 552.74402 559.4184 562.75201 571.4184 574.08478 580.75922 586.75922 593.43359 599.43359 602.76721 606.10083 614.1048 620.77917 623.44562 630.12 633.45361 637.71362"
               y="0"
               id="tspan7849"
               style="font-size:12px;font-variant:normal;font-weight:normal;writing-mode:lr-tb;fill:#000000;fill-opacity:1;fill-rule:nonzero;stroke:none;font-family:Helvetica;-inkscape-font-specification:Helvetica">IEEE Xplore Advance search request: ( &quot;Document Title&quot;:&quot;Iterative Closest Point&quot; OR &quot;Abstract&quot;:&quot;Iterative Closest Point&quot;)</tspan></text>
</g><g
           transform="translate(106.317,200.6889)"
           id="g7851" /><g
           transform="translate(107.632,153.7253)"
           id="g7853"><text
             transform="scale(1,-1)"
             id="text7855"><tspan
               x="0 8.0039997 14.004 20.6784 27.3528 34.027199 40.027199"
               y="0"
               id="tspan7857"
               style="font-size:12px;font-variant:normal;font-weight:normal;writing-mode:lr-tb;fill:#000000;fill-opacity:1;fill-rule:nonzero;stroke:none;font-family:Helvetica;-inkscape-font-specification:Helvetica">Scopus </tspan></text>
</g><g
           transform="translate(107.632,153.7253)"
           id="g7859"><text
             transform="matrix(1,0,0,-1,43.14844,0)"
             id="text7861"><tspan
               x="0 6.9024 13.5768 20.2512 24.2472 27.580799 34.255199 40.9296 47.604 51.599998 57.599998 60.933601 70.724403 78.054001 81.387604 88.717201 95.391602 103.3956 107.3916 115.3956 123.3996 131.40359 135.3996 143.40359 151.40759 159.41161 163.40759 167.6676 170.334 173.6676 180.342 184.338 191.01241 194.34599 197.01241 203.01241 209.6868 213.0204 219.0204 221.6868 228.36121 234.36121 241.0356 247.0356 250.3692 253.7028 260.3772 267.05161 269.71799 276.3924 279.72601 283.98599"
               y="0"
               id="tspan7863"
               style="font-size:12px;font-variant:normal;font-weight:normal;writing-mode:lr-tb;fill:#000000;fill-opacity:1;fill-rule:nonzero;stroke:none;font-family:Helvetica;-inkscape-font-specification:Helvetica">Your query: TITLE-ABS-KEY(&quot;iterative closest point&quot;)</tspan></text>
</g></g></g></g></svg>